<svg xmlns="http://www.w3.org/2000/svg" version="1.1" viewBox="-5.0 -10.0 110.0 135.0">
 <path d="m81.672 33.898c-3.3281 0-6.0312-2.707-6.0312-6.0312 0-0.64453 0.52344-1.168 1.168-1.168 0.64453 0 1.168 0.52344 1.168 1.168 0 2.0352 1.6562 3.6914 3.6914 3.6914 2.0352 0 3.6914-1.6562 3.6914-3.6914 0-2.6562-1.3594-3.1055-3.9609-3.7227-2.4336-0.57812-5.7617-1.3711-5.7617-6 0-3.3281 2.707-6.0312 6.0312-6.0312s6.0312 2.707 6.0312 6.0312c0 0.64453-0.52344 1.168-1.168 1.168s-1.168-0.52344-1.168-1.168c0-2.0352-1.6562-3.6914-3.6914-3.6914s-3.6914 1.6562-3.6914 3.6914c0 2.6562 1.3594 3.1055 3.9648 3.7266 2.4297 0.57812 5.7617 1.3711 5.7617 6 0 3.3281-2.707 6.0312-6.0312 6.0312z" fill-rule="evenodd"/>
 <path d="m81.672 37.047c-0.64453 0-1.168-0.52344-1.168-1.168v-25.746c0-0.64453 0.52344-1.168 1.168-1.168s1.168 0.52344 1.168 1.168v25.742c0 0.64844-0.52344 1.1719-1.168 1.1719z" fill-rule="evenodd"/>
 <path d="m81.672 41.238c-10.051 0-18.23-8.1797-18.23-18.23 0-10.051 8.1797-18.23 18.23-18.23s18.23 8.1797 18.23 18.23c0 10.051-8.1797 18.23-18.23 18.23zm0-34.121c-8.7617 0-15.891 7.1289-15.891 15.891 0 8.7617 7.1289 15.891 15.891 15.891s15.891-7.1289 15.891-15.891c0-8.7617-7.1289-15.891-15.891-15.891z" fill-rule="evenodd"/>
 <path d="m42.484 98.461c-2.9336 0-5.125-1.2969-7.9805-2.9844-4.2812-2.5273-10.145-5.9922-23.598-6.5234-0.64453-0.023437-1.1484-0.57031-1.1211-1.2148s0.55469-1.1562 1.2148-1.1211c14.043 0.55469 20.199 4.1914 24.695 6.8477 7.9258 4.6836 10.051 5.9414 48.59-23.871 2.2148-1.7148 1.9961-3.7148 1.0508-5.0156-1.2695-1.7461-4-2.5273-6.7656-0.64453l-12.414 8.4531c-0.34375 2.75-2.4766 5.5977-6.2461 6.2031-1.6719 0.26562-8.0977 0.19531-17.719 0.050781-4.7891-0.070313-9.3125-0.13672-12.055-0.11328h-0.011719c-0.64062 0-1.1641-0.51562-1.168-1.1562-0.007812-0.64844 0.51172-1.1758 1.1562-1.1836 2.7695-0.03125 7.3086 0.039062 12.113 0.10938 7.3672 0.10938 15.719 0.23828 17.312-0.019531 2.7695-0.44531 4.2539-2.5977 4.3242-4.5391 0-0.023437 0-0.046875 0.003907-0.066406v-0.058594c0.003906-0.87109-0.3125-2.9531-3.2812-3.4492-2.4023-0.39844-5.168-0.97266-8.0938-1.5742-13.566-2.7969-32.145-6.6289-40.75 1.1719-0.47656 0.43359-1.2188 0.39453-1.6523-0.082031-0.43359-0.47656-0.39844-1.2188 0.082031-1.6523 9.4883-8.6016 28.738-4.6289 42.793-1.7305 2.9023 0.59766 5.6445 1.1641 8.0039 1.5586 2.4688 0.41016 4.2578 1.8594 4.9375 3.8711l11.348-7.7266c3.957-2.6914 8.0898-1.3906 9.9766 1.2031 1.582 2.1797 1.7852 5.6875-1.5117 8.2383-27.172 21.016-36.918 27.02-43.234 27.02z" fill-rule="evenodd"/>
 <path d="m9.6406 94.633h-7.0586c-1.3672 0-2.4805-1.1133-2.4805-2.4805v-29.344c0-1.3672 1.1133-2.4805 2.4805-2.4805h7.0586c1.3672 0 2.4805 1.1133 2.4805 2.4805v29.348c0 1.3672-1.1133 2.4805-2.4805 2.4805zm-7.0586-31.969c-0.074219 0-0.14062 0.066407-0.14062 0.14063v29.348c0 0.078125 0.066406 0.14062 0.14062 0.14062h7.0586c0.074219 0 0.14062-0.066407 0.14062-0.14062v-29.348c0-0.078126-0.066406-0.14063-0.14062-0.14063z" fill-rule="evenodd"/>
 <path d="m18.598 64.152c-0.64453 0-1.168-0.52344-1.168-1.168v-34.629c0-0.64453 0.52344-1.168 1.168-1.168 0.64453 0 1.168 0.52344 1.168 1.168v34.629c0 0.64453-0.52344 1.1719-1.168 1.1719zm60.02-0.45312c-0.64453 0-1.168-0.52344-1.168-1.168v-22.734c0-0.64453 0.52344-1.168 1.168-1.168 0.64453 0 1.168 0.52344 1.168 1.168v22.734c0 0.64844-0.52344 1.1719-1.168 1.1719z" fill-rule="evenodd"/>
 <path d="m16.402 30.062c-2.2461 0-4.2773-1.2344-5.3008-3.2227-0.72656-1.4102-0.85937-3.0234-0.375-4.5391 0.48438-1.5156 1.5273-2.7539 2.9375-3.4766l32.215-16.605c1.7461-0.90234 3.707-0.90234 5.4531 0l17.578 9.0586c0.3125 0.16016 0.53516 0.45312 0.60938 0.79688 0.070313 0.34375-0.015625 0.70312-0.23438 0.97656-1.9141 2.3789-3.0938 5.2344-3.418 8.2578-0.039063 0.38281-0.26953 0.72266-0.60938 0.90625-0.33984 0.18359-0.74609 0.1875-1.0898 0.007812l-15.562-8.0195-29.488 15.199c-0.83594 0.43359-1.7773 0.66016-2.7148 0.66016zm32.203-26.184c-0.55859 0-1.1172 0.14062-1.6562 0.41797l-32.215 16.605c-0.85547 0.44141-1.4883 1.1914-1.7812 2.1133s-0.21484 1.8984 0.22656 2.7539c0.62109 1.207 1.8555 1.957 3.2227 1.957 0.57422 0 1.1289-0.13281 1.6445-0.39844l30.023-15.477c0.33594-0.17187 0.73438-0.17187 1.0703 0l14.652 7.5547c0.48047-2.3906 1.4375-4.6602 2.8164-6.6758l-16.352-8.4297c-0.53906-0.27734-1.0977-0.41797-1.6562-0.41797z" fill-rule="evenodd"/>
 <path d="m60.461 68.125c-0.64453 0-1.168-0.52344-1.168-1.168v-20.762h-21.367v16.398c0 0.64453-0.52344 1.168-1.168 1.168-0.64453 0-1.168-0.52344-1.168-1.168v-17.566c0-0.64453 0.52344-1.168 1.168-1.168h23.707c0.64453 0 1.168 0.52344 1.168 1.168v21.93c0 0.64453-0.52344 1.1719-1.168 1.1719z" fill-rule="evenodd"/>
 <path d="m48.609 65.773c-0.64453 0-1.168-0.52344-1.168-1.168v-19.578c0-0.64453 0.52344-1.168 1.168-1.168s1.168 0.52344 1.168 1.168v19.578c0 0.64453-0.52344 1.1719-1.168 1.1719z" fill-rule="evenodd"/>
 <path d="m62.52 46.195h-27.824c-0.64453 0-1.168-0.52344-1.168-1.168 0-0.64453 0.52344-1.168 1.168-1.168h27.824c0.64453 0 1.168 0.52344 1.168 1.168 0 0.64453-0.52344 1.168-1.168 1.168z" fill-rule="evenodd"/>
 <path d="m34.746 39.973h-5.7812c-1.4492 0-2.6289-1.1797-2.6289-2.6289v-5.7812c0-1.4492 1.1797-2.6289 2.6289-2.6289h5.7812c1.4492 0 2.6289 1.1797 2.6289 2.6289v5.7812c0 1.4492-1.1797 2.6289-2.6289 2.6289zm-5.7812-8.6992c-0.15625 0-0.28906 0.13281-0.28906 0.28906v5.7812c0 0.15625 0.13281 0.28906 0.28906 0.28906h5.7812c0.15625 0 0.28906-0.13281 0.28906-0.28906v-5.7812c0-0.15625-0.13281-0.28906-0.28906-0.28906z" fill-rule="evenodd"/>
 <path d="m68.25 39.973h-5.7812c-1.4492 0-2.6289-1.1797-2.6289-2.6289v-5.7812c0-1.4492 1.1797-2.6289 2.6289-2.6289h3.6797c0.45703 0 0.87109 0.26562 1.0625 0.68359 0.80859 1.7656 1.9258 3.3555 3.3164 4.7188 0.22266 0.21875 0.35156 0.51953 0.35156 0.83594v2.1719c0 1.4492-1.1797 2.6289-2.6289 2.6289zm-5.7812-8.6992c-0.15625 0-0.28906 0.13281-0.28906 0.28906v5.7812c0 0.15625 0.13281 0.28906 0.28906 0.28906h5.7812c0.15625 0 0.28906-0.13281 0.28906-0.28906v-1.6914c-1.2578-1.3008-2.3047-2.7734-3.1211-4.3789z" fill-rule="evenodd"/>
 <path d="m48.609 35.043c-4.1211 0-7.4727-3.3516-7.4727-7.4727 0-4.1211 3.3516-7.4727 7.4727-7.4727s7.4727 3.3516 7.4727 7.4727c0 4.1211-3.3555 7.4727-7.4727 7.4727zm0-12.605c-2.832 0-5.1367 2.3047-5.1367 5.1328 0 2.832 2.3047 5.1328 5.1367 5.1328s5.1328-2.3008 5.1328-5.1328c0-2.832-2.3047-5.1328-5.1328-5.1328z" fill-rule="evenodd"/>
<text x="0.0" y="117.5" font-size="5.0" font-weight="bold" font-family="Arbeit Regular, Helvetica, Arial-Unicode, Arial, Sans-serif" fill="#000000">Created by Amir Ali</text><text x="0.0" y="122.5" font-size="5.0" font-weight="bold" font-family="Arbeit Regular, Helvetica, Arial-Unicode, Arial, Sans-serif" fill="#000000">from Noun Project</text></svg>